<svg data-v-423bf9ae="" xmlns="http://www.w3.org/2000/svg" viewBox="0 0 762 90" class="iconLeft"><!----><!----><!----><g data-v-423bf9ae="" id="ff675143-10e1-49fc-b9b1-e91a8c08c462" fill="#488eff" transform="matrix(5.917159562968884,0,0,5.917159562968884,118.73817728635794,-2.2189341208575897)"><path d="M2.30 10.00L7.13 10.00L8.47 12.88L9.83 12.88L5.26 3.08L4.56 3.08L0.42 12.88L1.06 12.88L2.30 10.00ZM4.63 4.65L6.83 9.37L2.56 9.37L4.58 4.65L4.63 4.65ZM16.03 12.88L17.22 12.88L17.22 8.34L17.22 8.34Q17.22 8.09 17.18 7.65L17.18 7.65L17.18 7.65Q17.14 7.21 16.91 6.78L16.91 6.78L16.91 6.78Q16.67 6.36 16.17 6.04L16.17 6.04L16.17 6.04Q15.67 5.73 14.74 5.73L14.74 5.73L14.74 5.73Q14.34 5.71 13.83 5.89L13.83 5.89L13.83 5.89Q13.33 6.06 12.84 6.55L12.84 6.55L12.61 6.78L12.56 6.78L12.56 5.88L11.37 5.88L11.37 12.88L12.56 12.88L12.56 8.55L12.56 8.55Q12.56 8.01 12.71 7.62L12.71 7.62L12.71 7.62Q12.87 7.22 13.13 6.96L13.13 6.96L13.13 6.96Q13.40 6.69 13.74 6.57L13.74 6.57L13.74 6.57Q14.08 6.44 14.45 6.44L14.45 6.44L14.45 6.44Q15.04 6.44 15.36 6.67L15.36 6.67L15.36 6.67Q15.68 6.90 15.83 7.21L15.83 7.21L15.83 7.21Q15.97 7.52 16.00 7.83L16.00 7.83L16.00 7.83Q16.03 8.13 16.03 8.27L16.03 8.27L16.03 12.88ZM21.14 5.88L19.95 5.88L19.95 12.88L21.14 12.88L21.14 5.88ZM19.78 3.67L19.78 3.67L19.78 3.67Q19.78 3.98 20.01 4.20L20.01 4.20L20.01 4.20Q20.23 4.42 20.54 4.42L20.54 4.42L20.54 4.42Q20.85 4.42 21.07 4.20L21.07 4.20L21.07 4.20Q21.29 3.98 21.29 3.67L21.29 3.67L21.29 3.67Q21.29 3.36 21.07 3.14L21.07 3.14L21.07 3.14Q20.85 2.91 20.54 2.91L20.54 2.91L20.54 2.91Q20.23 2.91 20.01 3.14L20.01 3.14L20.01 3.14Q19.78 3.36 19.78 3.67ZM23.81 12.88L25.00 12.88L25.00 8.89L25.00 8.89Q25.00 8.64 25.05 8.23L25.05 8.23L25.05 8.23Q25.09 7.81 25.26 7.41L25.26 7.41L25.26 7.41Q25.44 7.01 25.80 6.73L25.80 6.73L25.80 6.73Q26.17 6.44 26.82 6.44L26.82 6.44L26.82 6.44Q27.30 6.44 27.56 6.65L27.56 6.65L27.56 6.65Q27.82 6.86 27.94 7.17L27.94 7.17L27.94 7.17Q28.07 7.48 28.09 7.81L28.09 7.81L28.09 7.81Q28.11 8.15 28.11 8.40L28.11 8.40L28.11 12.88L29.30 12.88L29.30 8.89L29.30 8.89Q29.30 8.58 29.36 8.16L29.36 8.16L29.36 8.16Q29.41 7.73 29.60 7.35L29.60 7.35L29.60 7.35Q29.78 6.97 30.12 6.71L30.12 6.71L30.12 6.71Q30.46 6.44 31.05 6.44L31.05 6.44L31.05 6.44Q31.49 6.44 31.75 6.57L31.75 6.57L31.75 6.57Q32.02 6.69 32.16 6.94L32.16 6.94L32.16 6.94Q32.31 7.20 32.36 7.56L32.36 7.56L32.36 7.56Q32.41 7.92 32.41 8.40L32.41 8.40L32.41 12.88L33.60 12.88L33.60 7.99L33.60 7.99Q33.60 7.67 33.53 7.27L33.53 7.27L33.53 7.27Q33.46 6.87 33.23 6.53L33.23 6.53L33.23 6.53Q33.00 6.19 32.56 5.96L32.56 5.96L32.56 5.96Q32.12 5.73 31.39 5.73L31.39 5.73L31.39 5.73Q31.18 5.73 30.90 5.77L30.90 5.77L30.90 5.77Q30.62 5.81 30.31 5.95L30.31 5.95L30.31 5.95Q30.00 6.09 29.71 6.36L29.71 6.36L29.71 6.36Q29.43 6.62 29.22 7.06L29.22 7.06L29.12 7.06L29.12 7.06Q29.04 6.83 28.88 6.60L28.88 6.60L28.88 6.60Q28.73 6.37 28.49 6.17L28.49 6.17L28.49 6.17Q28.25 5.98 27.92 5.85L27.92 5.85L27.92 5.85Q27.59 5.73 27.13 5.73L27.13 5.73L27.13 5.73Q26.92 5.73 26.63 5.78L26.63 5.78L26.63 5.78Q26.33 5.82 26.04 5.96L26.04 5.96L26.04 5.96Q25.75 6.10 25.49 6.36L25.49 6.36L25.49 6.36Q25.23 6.61 25.06 7.01L25.06 7.01L25.00 7.01L25.00 5.88L23.81 5.88L23.81 12.88ZM36.74 9.69L42.06 9.69L42.06 9.39L42.06 9.39Q42.06 8.46 41.79 7.77L41.79 7.77L41.79 7.77Q41.52 7.08 41.07 6.64L41.07 6.64L41.07 6.64Q40.61 6.19 40.01 5.96L40.01 5.96L40.01 5.96Q39.41 5.74 38.74 5.74L38.74 5.74L38.74 5.74Q38.02 5.74 37.42 5.99L37.42 5.99L37.42 5.99Q36.82 6.23 36.37 6.70L36.37 6.70L36.37 6.70Q35.92 7.17 35.67 7.83L35.67 7.83L35.67 7.83Q35.42 8.50 35.42 9.34L35.42 9.34L35.42 9.34Q35.42 10.04 35.64 10.70L35.64 10.70L35.64 10.70Q35.85 11.37 36.30 11.89L36.30 11.89L36.30 11.89Q36.74 12.42 37.41 12.73L37.41 12.73L37.41 12.73Q38.09 13.05 39.02 13.05L39.02 13.05L39.02 13.05Q39.91 13.05 40.67 12.73L40.67 12.73L40.67 12.73Q41.43 12.42 41.99 11.83L41.99 11.83L41.54 11.38L41.54 11.38Q41.24 11.63 40.98 11.84L40.98 11.84L40.98 11.84Q40.73 12.05 40.46 12.19L40.46 12.19L40.46 12.19Q40.19 12.33 39.91 12.41L39.91 12.41L39.91 12.41Q39.62 12.49 39.27 12.49L39.27 12.49L39.27 12.49Q38.88 12.49 38.44 12.37L38.44 12.37L38.44 12.37Q38.00 12.25 37.62 11.94L37.62 11.94L37.62 11.94Q37.24 11.63 36.99 11.09L36.99 11.09L36.99 11.09Q36.74 10.54 36.74 9.69L36.74 9.69ZM40.84 9.13L36.74 9.13L36.74 9.13Q36.74 8.57 36.85 8.04L36.85 8.04L36.85 8.04Q36.97 7.52 37.22 7.11L37.22 7.11L37.22 7.11Q37.46 6.71 37.84 6.46L37.84 6.46L37.84 6.46Q38.22 6.22 38.74 6.22L38.74 6.22L38.74 6.22Q39.73 6.22 40.28 6.99L40.28 6.99L40.28 6.99Q40.84 7.77 40.84 9.13L40.84 9.13ZM49.13 10.40L48.17 10.40L48.17 10.40Q48.20 11.00 48.49 11.49L48.49 11.49L48.49 11.49Q48.78 11.98 49.27 12.33L49.27 12.33L49.27 12.33Q49.77 12.67 50.44 12.86L50.44 12.86L50.44 12.86Q51.11 13.05 51.91 13.05L51.91 13.05L51.91 13.05Q52.72 13.05 53.38 12.85L53.38 12.85L53.38 12.85Q54.03 12.66 54.49 12.29L54.49 12.29L54.49 12.29Q54.95 11.93 55.20 11.41L55.20 11.41L55.20 11.41Q55.45 10.89 55.45 10.26L55.45 10.26L55.45 10.26Q55.45 9.39 55.02 8.84L55.02 8.84L55.02 8.84Q54.59 8.29 53.94 7.92L53.94 7.92L53.94 7.92Q53.28 7.55 52.52 7.29L52.52 7.29L52.52 7.29Q51.76 7.04 51.11 6.76L51.11 6.76L51.11 6.76Q50.46 6.48 50.02 6.12L50.02 6.12L50.02 6.12Q49.59 5.75 49.59 5.15L49.59 5.15L49.59 5.15Q49.59 4.82 49.73 4.52L49.73 4.52L49.73 4.52Q49.88 4.23 50.17 4.01L50.17 4.01L50.17 4.01Q50.46 3.79 50.88 3.66L50.88 3.66L50.88 3.66Q51.30 3.53 51.84 3.53L51.84 3.53L51.84 3.53Q52.75 3.53 53.39 3.91L53.39 3.91L53.39 3.91Q54.03 4.30 54.14 5.12L54.14 5.12L55.09 5.12L55.09 5.12Q55.01 4.61 54.71 4.19L54.71 4.19L54.71 4.19Q54.42 3.78 53.97 3.49L53.97 3.49L53.97 3.49Q53.52 3.21 52.95 3.06L52.95 3.06L52.95 3.06Q52.39 2.91 51.77 2.91L51.77 2.91L51.77 2.91Q51.13 2.91 50.55 3.08L50.55 3.08L50.55 3.08Q49.97 3.25 49.52 3.57L49.52 3.57L49.52 3.57Q49.08 3.89 48.82 4.38L48.82 4.38L48.82 4.38Q48.57 4.87 48.57 5.50L48.57 5.50L48.57 5.50Q48.57 6.33 48.99 6.83L48.99 6.83L48.99 6.83Q49.41 7.34 50.04 7.67L50.04 7.67L50.04 7.67Q50.68 8.01 51.42 8.25L51.42 8.25L51.42 8.25Q52.16 8.48 52.80 8.79L52.80 8.79L52.80 8.79Q53.44 9.09 53.86 9.52L53.86 9.52L53.86 9.52Q54.28 9.95 54.28 10.68L54.28 10.68L54.28 10.68Q54.28 11.59 53.61 12.01L53.61 12.01L53.61 12.01Q52.95 12.43 51.84 12.43L51.84 12.43L51.84 12.43Q50.96 12.43 50.43 12.20L50.43 12.20L50.43 12.20Q49.90 11.97 49.62 11.65L49.62 11.65L49.62 11.65Q49.34 11.33 49.24 10.98L49.24 10.98L49.24 10.98Q49.14 10.64 49.13 10.40L49.13 10.40ZM58.04 6.44L56.83 6.44L56.83 5.88L58.04 5.88L58.04 3.72L59.23 3.72L59.23 5.88L60.93 5.88L60.93 6.44L59.23 6.44L59.23 11.09L59.23 11.09Q59.23 11.26 59.25 11.47L59.25 11.47L59.25 11.47Q59.26 11.69 59.33 11.88L59.33 11.88L59.33 11.88Q59.40 12.07 59.55 12.19L59.55 12.19L59.55 12.19Q59.70 12.32 59.96 12.32L59.96 12.32L59.96 12.32Q60.30 12.32 60.52 12.07L60.52 12.07L60.52 12.07Q60.75 11.82 60.89 11.52L60.89 11.52L61.54 12.19L61.54 12.19Q60.86 12.88 59.99 12.88L59.99 12.88L59.99 12.88Q59.63 12.88 59.28 12.75L59.28 12.75L59.28 12.75Q58.93 12.63 58.65 12.37L58.65 12.37L58.65 12.37Q58.38 12.11 58.21 11.70L58.21 11.70L58.21 11.70Q58.04 11.30 58.04 10.75L58.04 10.75L58.04 6.44ZM65.35 5.73L65.35 5.73L65.35 5.73Q66.37 5.73 66.93 6.01L66.93 6.01L66.93 6.01Q67.49 6.30 67.75 6.76L67.75 6.76L67.75 6.76Q68.01 7.22 68.05 7.83L68.05 7.83L68.05 7.83Q68.10 8.43 68.10 9.06L68.10 9.06L68.10 12.88L66.96 12.88L66.96 12.19L66.96 12.19Q66.56 12.59 65.93 12.82L65.93 12.82L65.93 12.82Q65.30 13.05 64.67 13.05L64.67 13.05L64.67 13.05Q64.06 13.05 63.60 12.84L63.60 12.84L63.60 12.84Q63.14 12.63 62.83 12.29L62.83 12.29L62.83 12.29Q62.52 11.96 62.37 11.54L62.37 11.54L62.37 11.54Q62.22 11.12 62.22 10.68L62.22 10.68L62.22 10.68Q62.22 10.23 62.38 9.79L62.38 9.79L62.38 9.79Q62.55 9.34 62.89 8.98L62.89 8.98L62.89 8.98Q63.22 8.62 63.71 8.40L63.71 8.40L63.71 8.40Q64.20 8.18 64.83 8.18L64.83 8.18L64.83 8.18Q65.46 8.18 66.03 8.42L66.03 8.42L66.03 8.42Q66.60 8.67 66.96 9.11L66.96 9.11L66.96 8.51L66.96 8.51Q66.96 7.36 66.62 6.80L66.62 6.80L66.62 6.80Q66.28 6.24 65.37 6.24L65.37 6.24L65.37 6.24Q64.97 6.24 64.68 6.34L64.68 6.34L64.68 6.34Q64.39 6.44 64.16 6.62L64.16 6.62L64.16 6.62Q63.92 6.79 63.73 7.05L63.73 7.05L63.73 7.05Q63.53 7.31 63.34 7.63L63.34 7.63L62.61 6.90L62.61 6.90Q62.80 6.69 63.02 6.48L63.02 6.48L63.02 6.48Q63.24 6.27 63.55 6.10L63.55 6.10L63.55 6.10Q63.87 5.94 64.30 5.83L64.30 5.83L64.30 5.83Q64.74 5.73 65.35 5.73ZM66.96 11.19L66.96 10.11L66.96 10.11Q66.89 9.94 66.76 9.72L66.76 9.72L66.76 9.72Q66.63 9.49 66.42 9.28L66.42 9.28L66.42 9.28Q66.21 9.07 65.91 8.93L65.91 8.93L65.91 8.93Q65.62 8.78 65.21 8.78L65.21 8.78L65.21 8.78Q64.81 8.78 64.47 8.94L64.47 8.94L64.47 8.94Q64.13 9.10 63.90 9.36L63.90 9.36L63.90 9.36Q63.67 9.62 63.55 9.97L63.55 9.97L63.55 9.97Q63.42 10.32 63.42 10.70L63.42 10.70L63.42 10.70Q63.42 11.14 63.58 11.47L63.58 11.47L63.58 11.47Q63.74 11.80 63.99 12.03L63.99 12.03L63.99 12.03Q64.25 12.26 64.55 12.38L64.55 12.38L64.55 12.38Q64.86 12.49 65.14 12.49L65.14 12.49L65.14 12.49Q65.41 12.49 65.68 12.39L65.68 12.39L65.68 12.39Q65.95 12.29 66.20 12.12L66.20 12.12L66.20 12.12Q66.44 11.94 66.64 11.70L66.64 11.70L66.64 11.70Q66.84 11.47 66.96 11.19L66.96 11.19ZM70.85 6.44L69.64 6.44L69.64 5.88L70.85 5.88L70.85 3.72L72.04 3.72L72.04 5.88L73.74 5.88L73.74 6.44L72.04 6.44L72.04 11.09L72.04 11.09Q72.04 11.26 72.06 11.47L72.06 11.47L72.06 11.47Q72.07 11.69 72.14 11.88L72.14 11.88L72.14 11.88Q72.21 12.07 72.36 12.19L72.36 12.19L72.36 12.19Q72.51 12.32 72.77 12.32L72.77 12.32L72.77 12.32Q73.11 12.32 73.33 12.07L73.33 12.07L73.33 12.07Q73.56 11.82 73.70 11.52L73.70 11.52L74.35 12.19L74.35 12.19Q73.67 12.88 72.80 12.88L72.80 12.88L72.80 12.88Q72.44 12.88 72.09 12.75L72.09 12.75L72.09 12.75Q71.74 12.63 71.46 12.37L71.46 12.37L71.46 12.37Q71.19 12.11 71.02 11.70L71.02 11.70L71.02 11.70Q70.85 11.30 70.85 10.75L70.85 10.75L70.85 6.44ZM81.05 3.08L81.05 12.88L84.56 12.88L84.56 12.88Q85.50 12.88 86.14 12.64L86.14 12.64L86.14 12.64Q86.79 12.39 87.18 12.00L87.18 12.00L87.18 12.00Q87.57 11.61 87.75 11.11L87.75 11.11L87.75 11.11Q87.92 10.61 87.92 10.11L87.92 10.11L87.92 10.11Q87.92 9.31 87.58 8.83L87.58 8.83L87.58 8.83Q87.23 8.36 86.76 8.11L86.76 8.11L86.76 8.11Q86.28 7.85 85.78 7.77L85.78 7.77L85.78 7.77Q85.27 7.69 84.97 7.67L84.97 7.67L84.97 7.62L84.97 7.62Q85.46 7.62 85.89 7.43L85.89 7.43L85.89 7.43Q86.32 7.24 86.65 6.94L86.65 6.94L86.65 6.94Q86.98 6.64 87.18 6.24L87.18 6.24L87.18 6.24Q87.37 5.84 87.37 5.39L87.37 5.39L87.37 5.39Q87.37 5.00 87.21 4.59L87.21 4.59L87.21 4.59Q87.04 4.19 86.69 3.85L86.69 3.85L86.69 3.85Q86.35 3.51 85.81 3.30L85.81 3.30L85.81 3.30Q85.27 3.08 84.55 3.08L84.55 3.08L81.05 3.08ZM84.35 12.26L82.32 12.26L82.32 7.98L83.86 7.98L83.86 7.98Q84.55 7.98 85.05 8.16L85.05 8.16L85.05 8.16Q85.55 8.34 85.88 8.65L85.88 8.65L85.88 8.65Q86.21 8.96 86.37 9.37L86.37 9.37L86.37 9.37Q86.53 9.77 86.53 10.22L86.53 10.22L86.53 10.22Q86.53 10.71 86.36 11.09L86.36 11.09L86.36 11.09Q86.18 11.47 85.89 11.73L85.89 11.73L85.89 11.73Q85.60 12.00 85.20 12.13L85.20 12.13L85.20 12.13Q84.80 12.26 84.35 12.26L84.35 12.26ZM84 7.36L82.32 7.36L82.32 3.70L84.03 3.70L84.03 3.70Q84.57 3.70 84.96 3.85L84.96 3.85L84.96 3.85Q85.34 4.00 85.59 4.26L85.59 4.26L85.59 4.26Q85.83 4.51 85.95 4.83L85.95 4.83L85.95 4.83Q86.06 5.15 86.06 5.47L86.06 5.47L86.06 5.47Q86.06 5.88 85.90 6.23L85.90 6.23L85.90 6.23Q85.74 6.58 85.45 6.83L85.45 6.83L85.45 6.83Q85.16 7.08 84.79 7.22L84.79 7.22L84.79 7.22Q84.42 7.36 84 7.36L84 7.36ZM90.93 5.88L89.74 5.88L89.74 12.88L90.93 12.88L90.93 8.65L90.93 8.65Q90.93 8.08 91.06 7.68L91.06 7.68L91.06 7.68Q91.20 7.28 91.41 7.03L91.41 7.03L91.41 7.03Q91.62 6.78 91.87 6.66L91.87 6.66L91.87 6.66Q92.12 6.55 92.36 6.55L92.36 6.55L92.36 6.55Q92.68 6.55 92.95 6.76L92.95 6.76L92.95 6.76Q93.23 6.97 93.35 7.15L93.35 7.15L93.83 6.29L93.83 6.29Q93.70 6.12 93.53 6.01L93.53 6.01L93.53 6.01Q93.35 5.89 93.18 5.83L93.18 5.83L93.18 5.83Q93.00 5.77 92.86 5.75L92.86 5.75L92.86 5.75Q92.71 5.73 92.64 5.73L92.64 5.73L92.64 5.73Q92.05 5.73 91.66 6.05L91.66 6.05L91.66 6.05Q91.27 6.37 91.01 7.00L91.01 7.00L90.93 7.00L90.93 5.88ZM101.92 9.39L101.92 9.39L101.92 9.39Q101.92 10.12 101.67 10.79L101.67 10.79L101.67 10.79Q101.42 11.45 100.95 11.96L100.95 11.96L100.95 11.96Q100.48 12.46 99.81 12.75L99.81 12.75L99.81 12.75Q99.15 13.05 98.32 13.05L98.32 13.05L98.32 13.05Q97.48 13.05 96.80 12.75L96.80 12.75L96.80 12.75Q96.12 12.45 95.66 11.94L95.66 11.94L95.66 11.94Q95.19 11.44 94.93 10.77L94.93 10.77L94.93 10.77Q94.67 10.11 94.67 9.39L94.67 9.39L94.67 9.39Q94.67 8.67 94.93 8.00L94.93 8.00L94.93 8.00Q95.19 7.34 95.66 6.83L95.66 6.83L95.66 6.83Q96.12 6.33 96.80 6.03L96.80 6.03L96.80 6.03Q97.48 5.73 98.32 5.73L98.32 5.73L98.32 5.73Q99.15 5.73 99.81 6.03L99.81 6.03L99.81 6.03Q100.48 6.33 100.95 6.83L100.95 6.83L100.95 6.83Q101.42 7.34 101.67 8.00L101.67 8.00L101.67 8.00Q101.92 8.67 101.92 9.39ZM100.59 9.39L100.59 9.39L100.59 9.39Q100.59 8.41 100.38 7.81L100.38 7.81L100.38 7.81Q100.17 7.20 99.83 6.86L99.83 6.86L99.83 6.86Q99.50 6.52 99.09 6.41L99.09 6.41L99.09 6.41Q98.69 6.29 98.31 6.29L98.31 6.29L98.31 6.29Q97.93 6.29 97.52 6.41L97.52 6.41L97.52 6.41Q97.12 6.52 96.78 6.86L96.78 6.86L96.78 6.86Q96.43 7.20 96.22 7.81L96.22 7.81L96.22 7.81Q96.00 8.41 96.00 9.39L96.00 9.39L96.00 9.39Q96.00 10.36 96.22 10.97L96.22 10.97L96.22 10.97Q96.43 11.58 96.78 11.91L96.78 11.91L96.78 11.91Q97.12 12.25 97.52 12.37L97.52 12.37L97.52 12.37Q97.93 12.49 98.31 12.49L98.31 12.49L98.31 12.49Q98.69 12.49 99.09 12.37L99.09 12.37L99.09 12.37Q99.50 12.25 99.83 11.91L99.83 11.91L99.83 11.91Q100.17 11.58 100.38 10.97L100.38 10.97L100.38 10.97Q100.59 10.36 100.59 9.39ZM107.41 7.48L108.21 7.48L108.21 7.48Q108.21 7.10 108.01 6.78L108.01 6.78L108.01 6.78Q107.81 6.45 107.47 6.22L107.47 6.22L107.47 6.22Q107.13 5.99 106.67 5.86L106.67 5.86L106.67 5.86Q106.22 5.73 105.70 5.73L105.70 5.73L105.70 5.73Q105.21 5.73 104.78 5.85L104.78 5.85L104.78 5.85Q104.36 5.98 104.04 6.23L104.04 6.23L104.04 6.23Q103.73 6.48 103.54 6.85L103.54 6.85L103.54 6.85Q103.36 7.22 103.36 7.71L103.36 7.71L103.36 7.71Q103.36 8.39 103.67 8.78L103.67 8.78L103.67 8.78Q103.98 9.17 104.44 9.41L104.44 9.41L104.44 9.41Q104.90 9.65 105.44 9.79L105.44 9.79L105.44 9.79Q105.98 9.94 106.44 10.12L106.44 10.12L106.44 10.12Q106.90 10.29 107.21 10.56L107.21 10.56L107.21 10.56Q107.52 10.82 107.52 11.28L107.52 11.28L107.52 11.28Q107.52 11.48 107.46 11.69L107.46 11.69L107.46 11.69Q107.39 11.90 107.23 12.08L107.23 12.08L107.23 12.08Q107.06 12.25 106.76 12.37L106.76 12.37L106.76 12.37Q106.47 12.49 106.02 12.49L106.02 12.49L106.02 12.49Q105.46 12.49 105.08 12.31L105.08 12.31L105.08 12.31Q104.69 12.14 104.45 11.89L104.45 11.89L104.45 11.89Q104.20 11.65 104.10 11.40L104.10 11.40L104.10 11.40Q103.99 11.14 103.99 10.98L103.99 10.98L103.08 10.98L103.08 10.98Q103.08 11.37 103.26 11.74L103.26 11.74L103.26 11.74Q103.45 12.11 103.82 12.40L103.82 12.40L103.82 12.40Q104.19 12.70 104.73 12.87L104.73 12.87L104.73 12.87Q105.27 13.05 105.98 13.05L105.98 13.05L105.98 13.05Q107.27 13.05 107.92 12.48L107.92 12.48L107.92 12.48Q108.57 11.91 108.57 10.99L108.57 10.99L108.57 10.99Q108.57 10.32 108.26 9.91L108.26 9.91L108.26 9.91Q107.94 9.51 107.46 9.26L107.46 9.26L107.46 9.26Q106.99 9.02 106.44 8.86L106.44 8.86L106.44 8.86Q105.88 8.71 105.41 8.54L105.41 8.54L105.41 8.54Q104.93 8.37 104.62 8.13L104.62 8.13L104.62 8.13Q104.30 7.90 104.30 7.46L104.30 7.46L104.30 7.46Q104.30 7.28 104.37 7.08L104.37 7.08L104.37 7.08Q104.44 6.87 104.61 6.70L104.61 6.70L104.61 6.70Q104.78 6.52 105.06 6.41L105.06 6.41L105.06 6.41Q105.34 6.29 105.76 6.29L105.76 6.29L105.76 6.29Q106.18 6.29 106.48 6.41L106.48 6.41L106.48 6.41Q106.79 6.52 107.00 6.70L107.00 6.70L107.00 6.70Q107.21 6.87 107.31 7.08L107.31 7.08L107.31 7.08Q107.41 7.29 107.41 7.48L107.41 7.48Z"></path></g><!----><g data-v-423bf9ae="" id="eaa7bbd1-c003-4b23-bbfb-3e530bd9a2c0" transform="matrix(1.2005379607866684,0,0,1.2005379607866684,-9.18450461710934,-14.510133312450485)" stroke="none" fill="#488eff"><path style="text-indent:0;text-transform:none;block-progression:tb" d="M50.032 12.517c-11.422 0-21.78 1.57-29.375 4.156-3.797 1.293-6.888 2.826-9.125 4.625-2.107 1.694-3.472 3.717-3.625 5.937-.045.13-.066.269-.062.407 0 .133.022.274.03.406-.01 1.746-.083 3.653.032 5.344.062.909.184 1.747.406 2.5.08.27.221.527.344.78-.079.083-.144.053-.219.157-.43.603-.562 1.366-.562 2.438 0 2.833 1.308 5.488 3.531 7.78 1.056 1.09 2.311 2.115 3.75 3.063v32.625a1.15 1.15 0 0 0 1.813.938c1.322-.933 2.336-2.133 3.28-2.875.682-.535 1.228-.737 1.845-.719v.406a1.15 1.15 0 0 0 0 .344v1.469a1.15 1.15 0 0 0 .562.969c1.561.924 2.94 2.933 5.313 3.843 1.186.456 2.634.538 4.218 0 1.585-.538 3.326-1.642 5.438-3.5a1.15 1.15 0 0 0 .375-.875V57.517a93 93 0 0 0 12.031.78c11.452 0 21.83-1.989 29.438-5.312 3.804-1.661 6.907-3.644 9.125-5.937 2.217-2.294 3.562-4.95 3.562-7.781 0-.907-.077-1.583-.344-2.188-.155-.351-.408-.567-.625-.812a1.654 1.654 0 0 0-.03-.063c.897-2.128 1-4.626 1-8.562 0-2.382-1.426-4.545-3.657-6.344-2.231-1.8-5.335-3.332-9.125-4.625-7.58-2.587-17.921-4.156-29.344-4.156zm0 2.312c11.21 0 21.352 1.56 28.594 4.031 3.62 1.236 6.525 2.708 8.437 4.25 1.128.91 1.875 1.831 2.313 2.72-3.968-2.617-9.924-5.306-17.063-6.626a1.146 1.146 0 0 0-.343-.031c-.552.054-1.016.571-1.032 1.125-.015.554.422 1.072.97 1.156 7.788 1.44 14.14 4.612 17.655 7.281.02.022.041.043.063.063-.198.625-.563 1.269-1.094 1.906-7.07-5.107-21.608-8.312-38.562-8.312-16.96 0-31.494 3.202-38.563 8.312a5.892 5.892 0 0 1-.937-1.562c.103-.098.189-.215.25-.344.4-.631 1.953-1.83 4.28-2.938 2.328-1.107 5.402-2.218 8.907-3.156 7.011-1.876 15.745-3.071 23.656-2.437.63.115 1.292-.394 1.344-1.032.053-.638-.516-1.26-1.156-1.25a60.46 60.46 0 0 0-6.313-.156c-6.335.16-12.7 1.205-18.125 2.656-3.616.968-6.812 2.123-9.312 3.313-1.313.624-2.413 1.258-3.313 1.906.454-.848 1.203-1.726 2.282-2.594 1.918-1.542 4.809-3.014 8.437-4.25 7.257-2.471 17.415-4.03 28.625-4.03zm-.062 9.875c16.345 0 30.477 3.298 36.843 7.625-1.912 1.486-4.71 2.868-8.218 4.063-7.247 2.467-17.415 4.03-28.625 4.03-2.694 0-5.33-.078-7.875-.25a3.143 3.143 0 0 0-.344-.905c-.356-.615-.862-1.176-1.5-1.75-1.277-1.149-3.08-2.338-5.156-3.47-4.154-2.262-9.33-4.277-13.47-4.5-.47-.024-.924-.027-1.374 0-1.35.085-2.593.439-3.563 1.22-.838.675-1.358 1.672-1.53 2.875a18.481 18.481 0 0 1-2.032-1.344c6.383-4.316 20.525-7.594 36.844-7.594zM20.407 31.86c.34-.022.7-.02 1.094 0 3.472.187 8.568 2.046 12.5 4.188 1.966 1.07 3.659 2.235 4.719 3.187.15.135.158.219.28.344-.818-.195-1.767-.372-2.75.25a1.15 1.15 0 0 0-.53.969v41.375c-1.775 1.505-3.206 2.385-4.282 2.75-1.157.393-1.92.314-2.656.03-1.32-.506-2.622-1.994-4.406-3.218V79.08a1.15 1.15 0 0 0 0-.094V47.297a1.15 1.15 0 0 0-1.281-1.156 1.15 1.15 0 0 0-1 1.156v30.438c-1.256.01-2.375.562-3.25 1.25-.527.413-.916.782-1.375 1.219V35.547a1.15 1.15 0 0 0-.032-.156c-.245-1.64.115-2.357.72-2.844.452-.365 1.229-.62 2.25-.687zm-10.219.907c.398.414.835.803 1.313 1.187 1.038.836 2.26 1.62 3.656 2.344v2.719c-1.769-.428-3.325-1.911-4.312-3.344a1.153 1.153 0 0 0-.25-.25 2.05 2.05 0 0 1-.063-.188c-.142-.48-.257-1.182-.312-2-.01-.15-.024-.312-.032-.468zm79.5.093c-.129 1.325-.36 2.272-.78 3.032a1.155 1.155 0 0 0-.126.468c-7.862 5.555-16.528 8.99-26.437 9.563-.646-.04-1.255.573-1.22 1.219.036.645.707 1.172 1.345 1.062 10.218-.59 19.247-4.103 27.312-9.719.026.198.063.427.063.782 0 2.122-.98 4.164-2.907 6.156-1.926 1.992-4.799 3.862-8.406 5.437-7.214 3.15-17.319 5.157-28.5 5.157-4.193 0-8.233-.294-12.031-.813V42.142c3.791.39 7.809.593 11.969.593 11.422 0 21.758-1.574 29.343-4.156 3.793-1.29 6.923-2.828 9.157-4.625.44-.354.848-.714 1.218-1.094zM10.22 38.548c1.236 1.325 2.899 2.504 4.937 2.812v5.907a18.285 18.285 0 0 1-2.094-1.844c-1.931-1.992-2.906-4.035-2.906-6.156 0-.33.035-.547.063-.72z" overflow="visible" color="#000"></path></g><!----></svg>